HIERARCHY
ROOT Hips
{
  OFFSET -31.5692 30.0904 122.763
  CHANNELS 6 Xposition Yposition Zposition Zrotation Xrotation Yrotation
  JOINT LeftUpLeg
  {
    OFFSET 8.64259 1.95398 -2.38835
    CHANNELS 3 Zrotation Xrotation Yrotation
    JOINT LeftLeg
    {
      OFFSET 43.7702 0 0
      CHANNELS 3 Zrotation Xrotation Yrotation
      JOINT LeftFoot
      {
        OFFSET 40.6238 0 0
        CHANNELS 3 Zrotation Xrotation Yrotation
        JOINT LeftToeBase
        {
          OFFSET 12.7242 0 0
          CHANNELS 3 Zrotation Xrotation Yrotation
          End Site
          {
            OFFSET 0 0 0
          }
        }
      }
    }
  }
  JOINT RightUpLeg
  {
    OFFSET -8.2249 1.95398 -2.59336
    CHANNELS 3 Zrotation Xrotation Yrotation
    JOINT RightLeg
    {
      OFFSET 43.5653 0 0
      CHANNELS 3 Zrotation Xrotation Yrotation
      JOINT RightFoot
      {
        OFFSET 40.6238 0 0
        CHANNELS 3 Zrotation Xrotation Yrotation
        JOINT RightToeBase
        {
          OFFSET 12.7242 0 0
          CHANNELS 3 Zrotation Xrotation Yrotation
          End Site
          {
            OFFSET 0 0 0
          }
        }
      }
    }
  }
  JOINT Spine
  {
    OFFSET 0.165834 0.87714 6.61349
    CHANNELS 3 Zrotation Xrotation Yrotation
    JOINT Spine1
    {
      OFFSET 7.38963 1.71661e-005 0
      CHANNELS 3 Zrotation Xrotation Yrotation
      JOINT Spine2
      {
        OFFSET 11.9445 1.14441e-005 0
        CHANNELS 3 Zrotation Xrotation Yrotation
        JOINT Spine3
        {
          OFFSET 14.7254 4.19617e-005 0
          CHANNELS 3 Zrotation Xrotation Yrotation
          JOINT Spine4
          {
            OFFSET 10.9679 0 0
            CHANNELS 3 Zrotation Xrotation Yrotation
            JOINT RightShoulder
            {
              OFFSET 2.46616 -1.6653 3.69651
              CHANNELS 3 Zrotation Xrotation Yrotation
              JOINT RightArm
              {
                OFFSET 13.0012 0 0
                CHANNELS 3 Zrotation Xrotation Yrotation
                JOINT RightForeArm
                {
                  OFFSET 28.7848 1.62311e-005 0
                  CHANNELS 3 Zrotation Xrotation Yrotation
                  JOINT RightHand
                  {
                    OFFSET 26.5688 1.62095e-005 0
                    CHANNELS 3 Zrotation Xrotation Yrotation
                    End Site
                    {
                      OFFSET 0 0 0
                    }
                  }
                }
              }
            }
            JOINT LeftShoulder
            {
              OFFSET 2.38034 -1.29275 -3.7523
              CHANNELS 3 Zrotation Xrotation Yrotation
              JOINT LeftArm
              {
                OFFSET 16.3182 6.07031e-005 0
                CHANNELS 3 Zrotation Xrotation Yrotation
                JOINT LeftForeArm
                {
                  OFFSET 27.0901 0 0
                  CHANNELS 3 Zrotation Xrotation Yrotation
                  JOINT LeftHand
                  {
                    OFFSET 24.5451 1.51738e-005 0
                    CHANNELS 3 Zrotation Xrotation Yrotation
                    End Site
                    {
                      OFFSET 0 0 0
                    }
                  }
                }
              }
            }
            JOINT Neck
            {
              OFFSET 5.0226 -0.0266342 0
              CHANNELS 3 Zrotation Xrotation Yrotation
              JOINT Head
              {
                OFFSET 6.69364 2.86102e-005 0
                CHANNELS 3 Zrotation Xrotation Yrotation
                End Site
                {
                  OFFSET 0 0 0
                }
              }
            }
          }
        }
      }
    }
  }
}
MOTION
Frames:	10
Frame Time:	0.0416667
-226.045 96.5927 194.563 -101.763 -44.6787 -102.042 -174.991 3.13397 83.8117 -27.4565 9.34449 -0.96253 76.0284 9.06375 -1.48418 13.2905 -11.925 7.91752 171.954 15.5592 85.3554 -56.7823 -12.8956 -2.82399 67.6199 -4.23482 -1.74521 27.3977 0.29835 1.60888 0.934821 8.46374 -89.9066 9.94713 1.90559 0.0298339 -1.72242 1.90506 -0.0541005 -24.268 1.80849 0.60135 -4.25532 1.8085 0.601348 94.4824 -27.3156 -98.4733 38.7215 -7.00256 -4.89257 6.74688 -35.1746 -12.2222 -22.8858 -0.511266 -9.17105 -86.9567 -52.5181 83.6936 -22.9844 7.07499 6.39916 -3.57659 3.43449 -2.18263 3.53417 -0.766363 -19.8657 -5.11133 -2.6094 -4.43042 -0.0347263 -2.30787 -4.3813 
-223.005 96.2098 190.324 -101.665 -46.3103 -102.852 -175.104 7.68604 83.4423 -28.4307 12.368 -1.47306 73.136 8.1204 0.642268 11.9647 -12.3817 7.25147 171.479 4.9359 83.3382 -60.2482 -18.9699 -5.15548 67.2344 -4.01807 -1.14473 26.1699 0.809502 1.76829 1.19033 8.24856 -89.6038 10.3723 2.55286 0.563964 -1.29621 2.57519 0.450988 -23.8472 2.26526 1.30546 -3.8345 2.26527 1.30547 90.0338 -28.1471 -107.432 37.7737 -4.16826 -0.742881 2.23985 -31.8285 -17.1569 -25.7624 0.023516 -10.9917 -86.5509 -53.1379 84.3801 -25.5506 3.35743 11.7596 -1.89368 -2.61961 -4.82676 4.23007 -0.816427 -16.4373 -5.59407 -4.23752 -4.92348 0.437477 -3.97679 -6.02788 
-219.306 95.1968 184.806 -100.114 -47.8265 -102.025 -175.554 15.244 83.3189 -30.9951 12.8919 -1.45022 69.3453 5.65217 0.730481 11.8943 -12.1014 6.68254 171.571 -5.40995 83.8239 -49.2367 -23.9471 -6.91753 69.8411 -6.41911 -3.07783 30.5377 -1.56742 4.34117 1.35523 8.0543 -89.3436 10.7526 3.00138 1.02853 -0.915131 3.04374 0.895331 -23.4684 2.55348 1.88342 -3.45577 2.55349 1.88342 89.9957 -27.4691 -107.772 37.6048 -4.20967 -3.53855 0.0508385 -30.964 -20.1177 -26.2656 0.386018 -12.5618 -85.2761 -53.3454 86.2569 -26.499 1.90644 12.3744 -2.76258 -0.901849 -4.74326 1.69087 -0.673275 -21.6653 -4.30322 -5.36889 -5.80246 0.114786 -4.96604 -7.12623 
-214.127 94.3357 176.996 -96.9345 -47.6657 -99.0106 -176.447 22.399 84.622 -27.5682 13.2064 -1.14333 61.9604 0.7867 -0.105508 10.6263 -12.8313 6.58249 172.646 -9.24432 86.3857 -34.1241 -21.5392 -6.65055 77.0823 -12.1462 -4.77019 36.9938 -4.1428 3.15016 1.7524 7.95682 -89.3463 10.9459 3.79142 0.942396 -0.719698 3.82922 0.774377 -23.2881 3.33278 2.03934 -3.27548 3.33276 2.03933 89.8637 -25.9585 -108.696 37.1035 -4.07281 -5.20674 -2.4031 -30.6167 -23.5958 -27.721 0.73846 -13.8597 -85.045 -57.007 87.0317 -22.3751 -0.350581 8.49901 -1.02792 5.29865 -4.06785 1.35781 -0.624427 -25.0785 -2.63924 -6.42298 -3.17192 0.862138 -6.3762 -9.943 
-208.894 94.6172 168.85 -96.26 -50.4338 -95.8326 -177.003 23.4797 87.0904 -18.4617 10.1121 -0.787831 63.1246 2.39795 0.487806 8.62869 -13.9911 6.4283 173.422 -5.52802 90.0947 -29.7855 -19.7334 -3.64209 80.4638 -14.0279 -3.43726 32.6667 -2.11839 1.99682 1.49487 8.12493 -89.7628 10.6243 3.08638 0.191996 -1.04296 3.09183 0.055837 -23.6046 2.88586 1.11147 -3.59196 2.88588 1.11148 89.7535 -24.8977 -109.401 34.598 -4.9862 -7.54563 -3.47028 -32.6439 -25.5865 -26.6049 0.736543 -14.7526 -84.87 -59.6763 87.5663 -18.0487 1.01473 2.99774 -1.35928 7.32904 -2.69576 3.42925 -0.779656 -21.9643 1.31997 -6.13579 0.177044 -0.139992 -6.38819 -10.3588 
-205.541 96.4258 162.211 -97.6752 -55.0766 -97.5352 -175.882 22.3378 86.4032 -20.4722 -1.43997 -1.53283 63.8681 2.89919 -0.44814 15.047 -12.0354 10.1969 174.502 -1.98777 91.9784 -27.7134 -15.4933 -2.65173 77.0077 -10.8208 -3.23607 28.2807 -0.364299 2.91926 0.880502 8.1665 -89.8204 10.5399 1.83636 0.192697 -1.1297 1.84306 0.111651 -23.674 1.69352 0.735845 -3.66137 1.69352 0.735842 90.2378 -26.1551 -107.823 34.3803 -5.00304 -6.70281 -1.28435 -30.3262 -23.2126 -26.7174 0.597663 -13.4088 -87.5047 -56.5575 83.5259 -18.7169 3.63488 -0.646721 -2.73307 5.53115 0.119722 3.94089 -0.778027 -19.8616 0.359999 -5.45648 -1.11377 -0.144464 -5.47041 -7.94599 
-202.987 97.5466 157.04 -99.0193 -57.7353 -99.3501 -174.728 21.9414 87.947 -37.9343 7.88298 -0.362443 68.3811 5.15303 0.0599893 11.6366 -11.9386 6.09716 174.291 0.0100121 91.9471 -24.8616 -14.1943 -1.69558 73.7498 -8.055 -1.86313 26.6728 0.517303 2.08924 0.449963 8.09141 -89.8021 10.6906 0.987362 0.302448 -0.979974 0.999694 0.25869 -23.5174 0.850792 0.585218 -3.50479 0.850791 0.585218 91.048 -27.7564 -105.497 37.6199 -4.41762 -2.30306 -0.756886 -30.2237 -22.1166 -28.1749 0.538162 -12.6471 -87.7064 -51.928 82.5047 -20.4065 6.84938 -4.96594 -2.85049 5.96863 0.0293745 3.80671 -0.508893 -16.9706 0.572616 -4.92976 -3.51459 -0.883262 -4.45971 -4.05554 
-200.328 97.8079 152.746 -99.3384 -58.4447 -99.0859 -174.837 17.61 91.329 -52.8887 13.8437 2.69097 71.8034 6.93473 -0.174032 13.7323 -11.3412 7.36015 174.608 3.49004 92.711 -25.06 -13.7403 -1.09406 71.5883 -6.85161 -1.78275 25.7077 0.890457 2.35092 0.0047264 7.9369 -89.9904 10.999 0.0139465 0.0189029 -0.671979 0.0147729 0.0182641 -23.207 0.00761011 0.02222 -3.19432 0.0076266 0.0222236 91.5217 -28.2917 -104.324 39.6325 -4.94107 1.73457 1.75234 -32.2405 -19.1997 -26.4926 0.133306 -11.4884 -87.5528 -50.8705 82.5448 -20.5716 8.35906 -7.05645 -4.00017 6.96903 -0.372974 6.97872 -1.15991 -19.4884 0.57461 -3.33407 -3.45445 -1.21769 -2.82489 -1.40966 
-197.583 97.6499 149.262 -102.054 -58.8213 -99.4997 -174.769 8.23024 96.4495 -58.3712 21.06 6.02956 70.9589 6.79667 0.184374 15.2108 -9.94583 6.42978 175.123 5.26959 94.0141 -25.2741 -13.1946 -0.408189 69.6033 -5.6247 -1.89568 25.607 0.994128 2.09888 -0.457835 7.89676 -90.3496 11.0775 -1.07346 -0.592017 -0.593133 -1.09847 -0.544202 -23.1296 -0.8459 -0.887267 -3.11697 -0.845914 -0.887273 91.4866 -29.0913 -104.114 41.2815 -4.65247 5.52635 5.69121 -28.6421 -13.9398 -24.7887 -0.00206863 -10.2886 -87.4295 -50.1047 82.5988 -22.7551 8.65593 -9.50724 -3.63989 8.29676 -1.49798 8.10862 -1.61858 -22.5555 -1.098 -1.47585 -1.99979 -1.02899 -1.19819 0.149175 
-193.856 96.9773 145.903 -103.219 -59.1988 -99.1745 -173.01 -0.678597 99.6994 -55.358 31.515 8.2535 67.9976 5.32966 -0.517305 15.7051 -9.0815 5.32579 175.756 9.12512 94.6851 -27.4264 -12.1037 -0.328859 67.9773 -4.24552 -1.45474 25.0329 1.17186 2.43574 -0.776432 7.88238 -90.6314 11.1014 -1.83862 -1.07869 -0.568586 -1.88428 -0.996722 -23.1072 -1.42945 -1.58142 -3.09457 -1.42944 -1.58142 91.5047 -30.17 -103.705 42.0062 -3.38885 7.72355 7.36594 -24.668 -10.2158 -20.8559 0.0514034 -10.5874 -86.9925 -49.1272 83.0937 -25.0878 8.61852 -14.0836 -2.53051 13.8101 -1.9572 7.01504 -1.55558 -25.0115 -1.75246 -0.162381 -0.639021 -1.66037 -0.0599096 1.33258 
